<svg width="218" height="217" viewBox="0 0 218 217" fill="none" xmlns="http://www.w3.org/2000/svg">
<g id="4564442 1">
<g id="Background Simple">
<g id="Group">
<path id="Vector" d="M203.59 79.7041C202.365 76.3363 200.961 73.0509 199.405 69.8957C185.601 41.9157 159.881 22.9369 128.215 17.9502C126.85 17.7332 125.481 17.5466 124.107 17.3817C98.2613 14.2873 62.0733 18.1499 47.3234 41.9331C39.6629 54.2847 42.8065 69.861 34.6794 81.8784C24.1587 97.4373 10.634 105.219 8.13138 129.527C6.2871 147.412 7.15038 166.738 19.8511 181.008C34.8233 197.826 60.5168 203.615 82.465 200.386C103.768 197.253 122.839 186.785 141.473 176.95C159.157 167.615 179.383 160.836 193.715 146.553C211.783 128.542 211.77 102.194 203.599 79.7041H203.59Z" fill="#92E3A9"/>
<path id="Vector_2" opacity="0.7" d="M203.59 79.7041C202.365 76.3363 200.961 73.0509 199.405 69.8957C185.601 41.9157 159.881 22.9369 128.215 17.9502C126.85 17.7332 125.481 17.5466 124.107 17.3817C98.2613 14.2873 62.0733 18.1499 47.3234 41.9331C39.6629 54.2847 42.8065 69.861 34.6794 81.8784C24.1587 97.4373 10.634 105.219 8.13138 129.527C6.2871 147.412 7.15038 166.738 19.8511 181.008C34.8233 197.826 60.5168 203.615 82.465 200.386C103.768 197.253 122.839 186.785 141.473 176.95C159.157 167.615 179.383 160.836 193.715 146.553C211.783 128.542 211.77 102.194 203.599 79.7041H203.59Z" fill="white"/>
</g>
</g>
<g id="Plants">
<g id="Group_2">
<path id="Vector_3" d="M29.8878 72.248C31.6187 72.9988 35.8566 72.9077 35.8566 72.9077C35.9002 72.9077 34.9454 70.1474 34.8669 69.9782C33.9382 68.0425 30.9996 64.8483 28.6059 65.1694C26.8837 65.3995 25.9245 67.1181 26.3126 68.7326C26.7093 70.3818 28.4097 71.6057 29.8834 72.248H29.8878Z" fill="#CCCCCC"/>
<path id="Vector_4" d="M72.7291 73.1767C72.7684 73.1984 73.5009 70.3731 73.527 70.1908C73.8235 68.0642 73.1433 63.7893 70.9721 62.7434C69.4068 61.9926 67.6585 62.8953 67.0873 64.4577C66.5031 66.0505 67.2443 68.0078 68.1163 69.3532C69.1452 70.933 72.7291 73.1811 72.7335 73.1811L72.7291 73.1767Z" fill="#CCCCCC"/>
<path id="Vector_5" d="M85.3731 57.8956C82.9751 57.6395 80.1237 60.9119 79.2473 62.8692C79.1732 63.0385 78.2925 65.8204 78.3361 65.8204C78.3361 65.8204 78.3753 65.8204 78.3884 65.8204C77.935 66.3326 77.4554 66.8881 76.9409 67.5087C76.0035 68.6545 74.9527 69.9608 73.9063 71.4581C72.8556 72.9511 71.7569 74.6046 70.7584 76.4491C69.7556 78.2979 68.7921 80.29 68.0683 82.473C68.0596 82.4991 68.0552 82.5251 68.0465 82.5511C68.0596 81.8481 68.0291 79.8777 68.0073 79.7301C67.7282 77.6035 65.9406 73.6541 63.5644 73.2158C61.8553 72.9033 60.4078 74.2357 60.2726 75.8892C60.1331 77.5775 61.3626 79.2701 62.566 80.3377C63.9176 81.5399 67.6759 82.7074 67.9767 82.7985C67.3053 84.8817 66.7908 87.0778 66.3897 89.3259C66.1586 90.6105 65.9668 91.9125 65.7924 93.2188C65.7837 92.6113 65.7706 92.0644 65.7619 91.9906C65.4828 89.864 63.6952 85.9146 61.319 85.4806C59.6099 85.1682 58.1624 86.5005 58.0272 88.1541C57.8877 89.8423 59.1172 91.5349 60.3206 92.6026C61.537 93.6832 64.7242 94.7422 65.57 95.0113C65.509 95.5147 65.4392 96.0138 65.3782 96.5173C65.0904 98.926 64.8114 101.335 64.4626 103.687C64.3405 104.516 64.1923 105.327 64.044 106.139C64.0353 105.597 64.0222 105.145 64.0135 105.076C63.7345 102.949 61.9469 98.9997 59.5707 98.5657C57.8615 98.2489 56.414 99.5856 56.2789 101.239C56.1393 102.927 57.3689 104.62 58.5722 105.688C59.7363 106.721 62.6663 107.723 63.6691 108.049C63.4947 108.878 63.3203 109.707 63.111 110.501C62.9584 111.039 62.845 111.568 62.6619 112.102C62.4875 112.636 62.3175 113.161 62.1518 113.682C61.7899 114.676 61.4193 115.7 61.0443 116.659C60.7871 117.328 60.5299 117.961 60.2683 118.599C60.3991 117.775 60.6214 116.156 60.6214 116.021C60.6563 114.598 60.1462 112.28 59.1347 110.653C59.139 110.444 59.1303 110.232 59.0954 110.023C58.8295 108.383 57.2817 107.168 55.6031 107.61C53.2705 108.227 51.7924 112.302 51.6834 114.446C51.6747 114.572 51.7619 115.952 51.8273 116.82C51.7096 116.316 51.6006 115.822 51.4741 115.305C51.23 114.277 50.9553 113.261 50.6632 112.167C50.5062 111.642 50.3449 111.113 50.1792 110.579C50.031 110.045 49.8043 109.503 49.6168 108.956C49.1546 107.701 48.6271 106.452 48.0646 105.202C48.9671 104.985 52.163 104.177 53.4449 103.197C54.7223 102.22 56.0739 100.627 56.0652 98.9303C56.0521 97.2681 54.7093 95.8315 52.9827 96.0182C50.5847 96.2786 48.5006 100.08 48.0646 102.181C48.0385 102.311 47.8946 103.856 47.8335 104.702C47.4891 103.956 47.1534 103.21 46.7828 102.463C45.7102 100.315 44.5592 98.1708 43.4169 96.0268C43.0681 95.3715 42.728 94.7118 42.3835 94.0565C42.7062 93.9827 46.5255 93.1017 47.96 92.0037C49.2375 91.0272 50.5891 89.4344 50.5803 87.7374C50.5673 86.0752 49.2244 84.6387 47.4978 84.8253C45.0998 85.0857 43.0157 88.8875 42.5797 90.9881C42.5492 91.1443 42.3443 93.3664 42.3225 93.935C41.5682 92.4854 40.827 91.0358 40.1556 89.5776C39.2269 87.5638 38.429 85.5414 37.8012 83.5233C37.9494 83.4886 41.9388 82.5859 43.4125 81.4618C44.69 80.4853 46.0416 78.8925 46.0329 77.1956C46.0198 75.5334 44.6769 74.0968 42.9503 74.2834C40.5523 74.5438 38.4683 78.3457 38.0323 80.4462C38.0017 80.5851 37.8491 82.2777 37.7925 83.0806C37.7183 83.0893 37.7314 83.0893 37.6573 83.0936C37.012 80.9236 36.6589 78.7406 36.4278 76.6791C36.2926 75.4856 36.2316 74.3399 36.1967 73.2201C36.9553 73.129 40.4259 72.669 41.8647 71.801C43.2425 70.972 44.7641 69.5311 44.9385 67.8472C45.1085 66.1937 43.9313 64.6183 42.1917 64.6183C39.7806 64.6183 37.2911 68.1684 36.624 70.2082C36.5891 70.321 36.3449 71.4885 36.1836 72.3391C36.1749 71.8357 36.1575 71.3149 36.1618 70.8288C36.1618 69.0103 36.2795 67.3481 36.3929 65.8769C36.4627 65.0392 36.5455 64.2841 36.6283 63.581C37.3259 63.1036 40.1163 61.1419 40.9753 59.7401C41.8124 58.373 42.4969 56.3983 41.8734 54.8185C41.2587 53.2735 39.4885 52.4142 37.9407 53.2127C35.7956 54.3151 35.2331 58.6117 35.5863 60.7253C35.6168 60.9076 36.4278 63.7112 36.4627 63.6895C36.4627 63.6895 36.4975 63.6678 36.5063 63.6591C36.4103 64.3362 36.3188 65.0653 36.2316 65.8595C36.0833 67.3308 35.9307 68.9973 35.8915 70.8201C35.8435 72.6429 35.8435 74.622 36.031 76.7095C36.2185 78.8014 36.5193 80.9931 37.1254 83.2108C37.1341 83.2369 37.1428 83.2629 37.1515 83.2846C36.7722 82.69 35.6561 81.0669 35.5558 80.9497C34.1475 79.3265 30.4633 77.0176 28.2441 77.9551C26.6439 78.6321 26.1731 80.5374 26.9797 81.9956C27.7993 83.4799 29.7657 84.2177 31.3571 84.4477C33.1534 84.7081 36.9335 83.6188 37.2344 83.5276C37.8317 85.6325 38.6165 87.7461 39.5277 89.8423C40.0466 91.0402 40.609 92.2337 41.1845 93.4185C40.8401 92.9151 40.5262 92.468 40.4782 92.4116C39.0699 90.7885 35.3857 88.4796 33.1665 89.417C31.5664 90.0941 31.0955 91.9993 31.9021 93.4576C32.7218 94.9418 34.6881 95.6796 36.2795 95.9097C37.8971 96.144 41.1366 95.2803 41.9911 95.0373C42.2179 95.4887 42.4402 95.9444 42.6669 96.3957C43.7613 98.5657 44.8644 100.727 45.8803 102.875C46.2378 103.635 46.5648 104.394 46.8918 105.154C46.5866 104.707 46.325 104.334 46.277 104.282C44.8687 102.658 41.1845 100.349 38.9653 101.287C37.3652 101.964 36.8943 103.869 37.7009 105.327C38.5206 106.812 40.4869 107.55 42.0783 107.78C43.6218 108.005 46.6215 107.233 47.6373 106.951C47.9469 107.736 48.2652 108.526 48.5311 109.303C48.7012 109.837 48.9017 110.34 49.0413 110.887C49.1939 111.425 49.3421 111.959 49.4903 112.484C49.7389 113.508 50.0005 114.567 50.2141 115.574C50.3711 116.273 50.5062 116.941 50.6414 117.618C50.2926 116.859 49.5819 115.388 49.5078 115.27C48.3611 113.456 45.0737 110.618 42.7323 111.208C41.0494 111.638 40.2951 113.452 40.8663 115.01C41.4505 116.603 43.2817 117.627 44.8208 118.096C46.5168 118.612 50.2664 118.139 50.7373 118.078C50.964 119.194 51.1689 120.283 51.3477 121.312C51.9755 124.844 52.3636 127.813 52.6034 129.909H54.2384C54.234 129.861 54.2253 129.818 54.2209 129.77C53.9288 127.657 53.4667 124.64 52.7516 121.051C52.5293 119.919 52.2677 118.708 51.9843 117.471C52.2677 117.358 53.8678 116.716 55.2848 115.926C56.5187 117.258 59.684 118.816 60.0939 119.011C59.6622 120.066 59.2349 121.086 58.812 122.045C57.3776 125.335 56.0521 128.026 55.0973 129.905H56.8936C57.7787 128.039 58.9167 125.556 60.1287 122.601C60.5691 121.533 61.0225 120.383 61.4716 119.194C61.9251 119.289 65.6398 120.04 67.3707 119.649C68.9403 119.298 70.8413 118.413 71.5432 116.868C72.2321 115.353 71.6173 113.491 69.9693 112.94C67.6803 112.176 64.1923 114.763 62.9104 116.486C62.8363 116.585 62.1387 117.783 61.7158 118.543C61.8989 118.057 62.082 117.588 62.2608 117.085C62.627 116.095 62.9627 115.097 63.3246 114.02C63.4816 113.495 63.6429 112.966 63.8042 112.432C63.9743 111.907 64.0876 111.325 64.2359 110.77C64.5454 109.468 64.7983 108.135 65.0207 106.79C65.8927 107.107 69.0057 108.183 70.6189 108.07C72.2234 107.957 74.2377 107.372 75.1664 105.948C76.0776 104.555 75.7506 102.619 74.2072 101.825C72.0621 100.723 68.2165 102.754 66.6905 104.268C66.5946 104.364 65.6223 105.57 65.0991 106.243C65.2256 105.432 65.3607 104.624 65.461 103.795C65.7575 101.413 65.9842 98.9954 66.2197 96.5824C66.2894 95.8446 66.3723 95.1068 66.4507 94.369C66.7603 94.4861 70.4314 95.8446 72.2408 95.7187C73.8453 95.6059 75.8596 95.02 76.7883 93.5964C77.6995 92.2033 77.3725 90.2677 75.8291 89.4734C73.684 88.3711 69.8385 90.4022 68.3125 91.9169C68.1991 92.0297 66.7995 93.77 66.4638 94.2301C66.6382 92.6069 66.8213 90.9924 67.0699 89.4083C67.4099 87.221 67.8677 85.0944 68.4607 83.0633C68.6046 83.1197 72.4327 84.5562 74.2813 84.426C75.8858 84.3132 77.9001 83.7273 78.8288 82.3038C79.74 80.9106 79.413 78.975 77.8696 78.1808C75.7245 77.0784 71.8789 79.1095 70.3529 80.6242C70.2527 80.724 69.1845 82.0477 68.6918 82.69C68.6264 82.6553 68.6351 82.6596 68.5697 82.6249C69.2324 80.4593 70.148 78.4455 71.0985 76.601C71.6479 75.5334 72.2321 74.5395 72.8251 73.589C73.5096 73.9276 76.6575 75.4509 78.3361 75.516C79.9449 75.5811 82.0116 75.2165 83.0929 73.9059C84.1523 72.6212 84.0433 70.6639 82.5958 69.7047C80.5859 68.3767 76.5398 69.9738 74.8568 71.3105C74.7653 71.3843 73.9151 72.2263 73.3047 72.8469C73.5793 72.4216 73.854 71.9789 74.12 71.5753C75.1315 70.0606 76.1474 68.7369 77.0586 67.5738C77.5818 66.9141 78.0701 66.3326 78.5279 65.7901C79.3738 65.777 82.792 65.6729 84.2831 64.9741C85.7394 64.2928 87.4049 63.0211 87.7581 61.3633C88.1025 59.7401 87.0997 58.0475 85.3688 57.8652L85.3731 57.8956Z" fill="#CCCCCC"/>
</g>
<g id="Group_3">
<path id="Vector_6" d="M100.742 134.536C102.473 135.291 106.711 135.195 106.711 135.195C106.755 135.195 105.8 132.435 105.721 132.266C104.793 130.33 101.854 127.136 99.4603 127.457C97.7381 127.687 96.7789 129.406 97.167 131.02C97.5637 132.669 99.2641 133.893 100.738 134.536H100.742Z" fill="#CCCCCC"/>
<path id="Vector_7" d="M143.588 135.46C143.627 135.482 144.36 132.656 144.386 132.474C144.682 130.348 144.002 126.073 141.831 125.027C140.266 124.276 138.517 125.179 137.946 126.741C137.362 128.334 138.103 130.291 138.975 131.637C140.004 133.216 143.588 135.464 143.592 135.464L143.588 135.46Z" fill="#CCCCCC"/>
<path id="Vector_8" d="M156.228 120.183C153.83 119.927 150.978 123.2 150.102 125.157C150.028 125.326 149.147 128.108 149.19 128.108C149.19 128.108 149.23 128.108 149.243 128.108C148.789 128.62 148.31 129.176 147.795 129.796C146.858 130.942 145.807 132.248 144.761 133.746C143.71 135.239 142.611 136.892 141.613 138.737C140.61 140.586 139.646 142.578 138.923 144.761C138.914 144.787 138.91 144.813 138.901 144.839C138.914 144.136 138.883 142.165 138.862 142.018C138.583 139.891 136.795 135.942 134.419 135.503C132.71 135.191 131.262 136.523 131.127 138.177C130.987 139.865 132.217 141.558 133.42 142.625C134.772 143.828 138.53 144.995 138.831 145.086C138.16 147.169 137.645 149.365 137.244 151.614C137.013 152.898 136.821 154.2 136.647 155.507C136.638 154.899 136.625 154.352 136.616 154.278C136.337 152.152 134.55 148.202 132.173 147.768C130.464 147.456 129.017 148.788 128.882 150.442C128.742 152.13 129.972 153.823 131.175 154.89C132.391 155.975 135.574 157.03 136.424 157.299C136.363 157.802 136.294 158.301 136.233 158.805C135.945 161.214 135.666 163.622 135.317 165.975C135.195 166.804 135.047 167.615 134.898 168.427C134.89 167.884 134.877 167.433 134.868 167.363C134.589 165.237 132.801 161.287 130.425 160.853C128.716 160.537 127.268 161.873 127.133 163.527C126.994 165.215 128.223 166.908 129.427 167.975C130.591 169.008 133.521 170.011 134.523 170.336C134.349 171.165 134.175 171.994 133.965 172.788C133.813 173.327 133.699 173.856 133.516 174.39C133.342 174.924 133.172 175.449 133.006 175.97C132.644 176.963 132.274 177.988 131.899 178.947C131.641 179.615 131.384 180.249 131.123 180.887C131.253 180.062 131.476 178.443 131.476 178.309C131.511 176.885 131.001 174.568 129.989 172.94C129.993 172.732 129.985 172.519 129.95 172.311C129.684 170.67 128.136 169.455 126.457 169.898C124.125 170.514 122.647 174.59 122.538 176.733C122.529 176.859 122.616 178.239 122.682 179.107C122.564 178.604 122.455 178.109 122.329 177.593C122.084 176.564 121.81 175.549 121.518 174.455C121.356 173.93 121.199 173.4 121.034 172.867C120.885 172.333 120.659 171.79 120.471 171.243C120.009 169.989 119.481 168.739 118.919 167.489C119.822 167.272 123.017 166.465 124.299 165.484C125.577 164.508 126.928 162.915 126.92 161.218C126.907 159.556 125.564 158.119 123.837 158.306C121.439 158.566 119.355 162.368 118.919 164.469C118.893 164.599 118.749 166.144 118.688 166.99C118.343 166.244 118.008 165.497 117.637 164.751C116.565 162.602 115.414 160.458 114.271 158.315C113.922 157.659 113.582 156.999 113.238 156.344C113.561 156.27 117.38 155.389 118.814 154.291C120.092 153.315 121.443 151.722 121.435 150.025C121.422 148.363 120.079 146.926 118.352 147.113C115.954 147.373 113.87 151.175 113.434 153.276C113.404 153.432 113.199 155.654 113.177 156.223C112.423 154.773 111.681 153.324 111.01 151.865C110.081 149.852 109.283 147.829 108.656 145.811C108.804 145.776 112.793 144.874 114.267 143.749C115.544 142.773 116.896 141.18 116.887 139.483C116.874 137.821 115.531 136.384 113.805 136.571C111.407 136.832 109.323 140.633 108.887 142.734C108.856 142.873 108.704 144.565 108.647 145.368C108.573 145.377 108.586 145.377 108.512 145.381C107.866 143.211 107.513 141.028 107.282 138.967C107.147 137.773 107.086 136.628 107.051 135.508C107.81 135.417 111.28 134.957 112.719 134.089C114.097 133.26 115.618 131.819 115.793 130.135C115.963 128.481 114.786 126.906 113.046 126.906C110.635 126.902 108.145 130.456 107.478 132.496C107.443 132.609 107.199 133.776 107.038 134.627C107.029 134.123 107.012 133.603 107.016 133.116C107.016 131.298 107.134 129.636 107.247 128.165C107.317 127.327 107.4 126.572 107.483 125.869C108.18 125.391 110.971 123.43 111.83 122.028C112.667 120.661 113.351 118.686 112.728 117.106C112.113 115.561 110.343 114.702 108.795 115.5C106.65 116.603 106.088 120.899 106.441 123.013C106.471 123.195 107.282 125.999 107.317 125.977C107.317 125.977 107.352 125.955 107.361 125.947C107.265 126.624 107.173 127.353 107.086 128.147C106.938 129.618 106.785 131.285 106.746 133.108C106.698 134.931 106.698 136.91 106.885 138.997C107.073 141.089 107.374 143.281 107.98 145.498C107.988 145.525 107.997 145.551 108.006 145.572C107.627 144.978 106.51 143.355 106.41 143.237C105.002 141.614 101.318 139.305 99.0984 140.243C97.4983 140.92 97.0274 142.825 97.834 144.283C98.6537 145.768 100.62 146.505 102.211 146.735C104.008 146.996 107.788 145.906 108.089 145.815C108.686 147.92 109.471 150.034 110.382 152.13C110.901 153.328 111.463 154.521 112.039 155.706C111.694 155.203 111.381 154.756 111.333 154.699C109.924 153.076 106.24 150.767 104.021 151.705C102.421 152.382 101.95 154.287 102.756 155.745C103.576 157.23 105.543 157.967 107.134 158.197C108.751 158.432 111.991 157.568 112.846 157.325C113.072 157.776 113.295 158.232 113.521 158.683C114.616 160.853 115.719 163.015 116.735 165.163C117.092 165.923 117.419 166.682 117.746 167.442C117.441 166.995 117.179 166.621 117.131 166.569C115.723 164.946 112.039 162.637 109.82 163.575C108.22 164.252 107.749 166.157 108.555 167.615C109.375 169.099 111.341 169.837 112.933 170.067C114.476 170.293 117.476 169.52 118.492 169.238C118.801 170.024 119.12 170.814 119.386 171.591C119.556 172.124 119.756 172.628 119.896 173.175C120.048 173.713 120.196 174.247 120.345 174.772C120.593 175.796 120.855 176.855 121.068 177.862C121.225 178.561 121.361 179.229 121.496 179.906C121.147 179.147 120.436 177.675 120.362 177.558C119.215 175.744 115.928 172.906 113.587 173.496C111.904 173.926 111.149 175.74 111.721 177.298C112.305 178.89 114.136 179.915 115.675 180.383C117.371 180.9 121.121 180.427 121.592 180.366C121.818 181.481 122.023 182.571 122.202 183.599C122.83 187.132 123.218 190.101 123.458 192.197H125.093C125.088 192.149 125.08 192.106 125.075 192.058C124.783 189.944 124.321 186.928 123.606 183.339C123.384 182.206 123.122 180.995 122.839 179.758C123.122 179.646 124.722 179.003 126.139 178.213C127.373 179.546 130.538 181.104 130.948 181.299C130.517 182.354 130.089 183.374 129.666 184.333C128.232 187.623 126.907 190.313 125.952 192.193H127.748C128.633 190.326 129.771 187.844 130.983 184.888C131.423 183.821 131.877 182.671 132.326 181.481C132.779 181.577 136.494 182.328 138.225 181.937C139.795 181.586 141.696 180.7 142.398 179.155C143.086 177.641 142.472 175.779 140.824 175.227C138.535 174.464 135.047 177.05 133.765 178.773C133.691 178.873 132.993 180.071 132.57 180.83C132.753 180.344 132.936 179.876 133.115 179.372C133.481 178.383 133.817 177.384 134.179 176.308C134.336 175.783 134.497 175.254 134.659 174.72C134.829 174.195 134.942 173.613 135.09 173.057C135.4 171.755 135.653 170.423 135.875 169.078C136.747 169.395 139.86 170.471 141.473 170.358C143.078 170.245 145.092 169.659 146.021 168.236C146.932 166.843 146.605 164.907 145.062 164.113C142.916 163.01 139.071 165.042 137.545 166.556C137.449 166.652 136.477 167.858 135.954 168.531C136.08 167.719 136.215 166.912 136.315 166.083C136.612 163.7 136.839 161.283 137.074 158.87C137.144 158.132 137.227 157.394 137.305 156.657C137.615 156.774 141.286 158.132 143.095 158.006C144.7 157.894 146.714 157.308 147.643 155.884C148.554 154.491 148.227 152.555 146.683 151.761C144.538 150.659 140.693 152.69 139.167 154.205C139.053 154.317 137.654 156.058 137.318 156.518C137.493 154.895 137.676 153.28 137.924 151.696C138.264 149.509 138.722 147.382 139.315 145.351C139.459 145.407 143.287 146.844 145.136 146.714C146.74 146.601 148.754 146.015 149.683 144.591C150.594 143.198 150.267 141.263 148.724 140.468C146.579 139.366 142.733 141.397 141.207 142.912C141.107 143.012 140.039 144.335 139.546 144.978C139.481 144.943 139.489 144.947 139.424 144.913C140.087 142.747 141.002 140.733 141.953 138.889C142.502 137.821 143.086 136.827 143.679 135.877C144.364 136.215 147.512 137.739 149.19 137.804C150.799 137.869 152.866 137.504 153.947 136.194C155.007 134.909 154.898 132.952 153.45 131.992C151.44 130.664 147.394 132.261 145.711 133.598C145.62 133.672 144.769 134.514 144.159 135.135C144.434 134.709 144.708 134.267 144.974 133.863C145.986 132.348 147.002 131.025 147.913 129.861C148.436 129.202 148.925 128.62 149.382 128.073C150.228 128.06 153.646 127.956 155.138 127.257C156.594 126.576 158.259 125.304 158.612 123.647C158.957 122.023 157.954 120.331 156.223 120.149L156.228 120.183Z" fill="#CCCCCC"/>
</g>
<g id="Group_4">
<path id="Vector_9" d="M27.0712 137.231C28.8675 137.812 33.0749 137.313 33.0793 137.313C33.1229 137.309 31.9065 134.653 31.8105 134.497C30.6987 132.661 27.4636 129.762 25.1136 130.313C23.4219 130.708 22.6327 132.509 23.1777 134.08C23.7315 135.681 25.5452 136.74 27.0756 137.235L27.0712 137.231Z" fill="#CCCCCC"/>
<path id="Vector_10" d="M69.8036 134.037C69.8428 134.058 70.3006 131.172 70.305 130.99C70.3965 128.846 69.3022 124.653 67.0393 123.82C65.4087 123.221 63.7563 124.289 63.3377 125.899C62.9104 127.54 63.8391 129.414 64.8375 130.673C66.0147 132.144 69.7992 134.037 69.8036 134.041V134.037Z" fill="#CCCCCC"/>
<path id="Vector_11" d="M80.9041 117.614C78.4931 117.588 75.973 121.121 75.2885 123.156C75.2318 123.334 74.6257 126.185 74.6693 126.181C74.6693 126.181 74.7086 126.177 74.7217 126.177C74.3205 126.732 73.8933 127.331 73.4442 127.995C72.6201 129.228 71.7045 130.63 70.8064 132.218C69.9082 133.807 68.9752 135.556 68.1599 137.487C67.3402 139.422 66.5772 141.497 66.0671 143.741C66.0627 143.767 66.0583 143.793 66.054 143.819C65.9973 143.116 65.7749 141.163 65.7401 141.011C65.2561 138.919 63.0935 135.161 60.6868 134.957C58.9559 134.809 57.6435 136.276 57.6697 137.934C57.6959 139.631 59.0823 141.193 60.3816 142.144C61.8466 143.211 65.6965 144.01 66.006 144.075C65.5395 146.215 65.2387 148.445 65.0599 150.724C64.9553 152.026 64.8899 153.341 64.8419 154.656C64.7721 154.053 64.7067 153.51 64.6893 153.436C64.2053 151.344 62.0428 147.586 59.6361 147.382C57.9051 147.234 56.5928 148.701 56.6189 150.359C56.6451 152.056 58.0316 153.619 59.3309 154.569C60.6476 155.528 63.9176 156.279 64.7896 156.461C64.7765 156.969 64.7591 157.473 64.746 157.976C64.6937 160.402 64.6501 162.824 64.5323 165.202C64.4931 166.04 64.4233 166.86 64.3536 167.685C64.2925 167.146 64.2359 166.695 64.2228 166.626C63.7388 164.534 61.5763 160.775 59.1695 160.571C57.4386 160.424 56.1263 161.886 56.1524 163.549C56.1786 165.245 57.5694 166.808 58.8643 167.758C60.12 168.674 63.1328 169.39 64.1661 169.616C64.0702 170.458 63.9786 171.3 63.8478 172.111C63.7475 172.663 63.6865 173.201 63.5557 173.748C63.4336 174.294 63.3159 174.833 63.1982 175.366C62.9322 176.386 62.6663 177.445 62.3829 178.435C62.191 179.125 61.9948 179.78 61.7986 180.44C61.8509 179.607 61.912 177.975 61.9033 177.84C61.7986 176.417 61.0661 174.16 59.902 172.637C59.8889 172.428 59.8541 172.22 59.8017 172.016C59.3788 170.41 57.722 169.347 56.0914 169.95C53.8285 170.788 52.7516 174.989 52.8519 177.128C52.8563 177.254 53.0743 178.617 53.2269 179.476C53.0612 178.986 52.9042 178.504 52.7298 178.001C52.3854 177.003 52.0148 176.017 51.618 174.954C51.4087 174.446 51.1951 173.934 50.9815 173.418C50.7809 172.901 50.5019 172.38 50.2621 171.855C49.6822 170.649 49.0325 169.455 48.3567 168.27C49.2331 167.971 52.3331 166.856 53.5146 165.758C54.6918 164.664 55.8821 162.945 55.7077 161.261C55.5333 159.612 54.0596 158.31 52.3549 158.662C49.9917 159.152 48.287 163.136 48.0603 165.272C48.0472 165.406 48.0559 166.951 48.0733 167.806C47.6591 167.094 47.2493 166.383 46.8089 165.679C45.5315 163.644 44.1799 161.622 42.837 159.599C42.4271 158.979 42.0217 158.358 41.6162 157.737C41.9301 157.633 45.6448 156.388 46.9659 155.159C48.1431 154.066 49.3334 152.347 49.159 150.663C48.9846 149.014 47.5109 147.712 45.8061 148.063C43.443 148.554 41.7383 152.538 41.5115 154.673C41.4941 154.834 41.5115 157.065 41.5421 157.629C40.6483 156.262 39.7719 154.89 38.9653 153.501C37.8448 151.588 36.8551 149.652 36.0354 147.703C36.1793 147.655 40.064 146.375 41.42 145.112C42.5972 144.019 43.7875 142.3 43.6131 140.616C43.4387 138.962 41.965 137.665 40.2602 138.016C37.8971 138.507 36.1923 142.491 35.9656 144.626C35.9525 144.765 35.9613 146.466 35.9831 147.274C35.9089 147.291 35.922 147.287 35.8479 147.3C34.9933 145.199 34.4309 143.059 34.0036 141.033C33.7551 139.856 33.5807 138.724 33.4368 137.613C34.1824 137.448 37.5919 136.658 38.9391 135.655C40.2297 134.696 41.6031 133.121 41.6162 131.424C41.6249 129.762 40.3038 128.308 38.5729 128.473C36.1705 128.698 34.0385 132.478 33.5763 134.57C33.5502 134.683 33.4237 135.872 33.3409 136.736C33.2842 136.233 33.2145 135.716 33.1709 135.234C32.9965 133.425 32.9529 131.758 32.9223 130.282C32.9136 129.445 32.9223 128.685 32.9354 127.974C33.5851 127.431 36.1705 125.209 36.8899 123.733C37.5919 122.293 38.0802 120.261 37.3041 118.751C36.5455 117.271 34.6969 116.59 33.2363 117.527C31.2089 118.829 31.065 123.161 31.6231 125.231C31.671 125.409 32.7479 128.125 32.7828 128.095C32.7828 128.095 32.8133 128.069 32.8221 128.06C32.7959 128.742 32.7697 129.475 32.7654 130.278C32.7654 131.758 32.7741 133.429 32.9049 135.247C33.0357 137.066 33.2275 139.036 33.6156 141.098C34.0036 143.164 34.5181 145.312 35.3378 147.46C35.3465 147.486 35.3596 147.508 35.3683 147.534C34.9323 146.978 33.6635 145.468 33.5545 145.364C31.9937 143.884 28.1045 141.94 25.9856 143.09C24.4596 143.919 24.1762 145.859 25.1179 147.23C26.0771 148.632 28.1045 149.174 29.7134 149.248C31.5271 149.335 35.1852 147.885 35.4729 147.768C36.2708 149.808 37.2562 151.835 38.368 153.831C39.0002 154.973 39.676 156.105 40.3649 157.23C39.9725 156.761 39.6193 156.348 39.5626 156.296C38.0017 154.816 34.1126 152.872 31.9937 154.022C30.4677 154.851 30.1843 156.791 31.126 158.163C32.0852 159.564 34.1126 160.107 35.7215 160.181C37.3521 160.259 40.4957 159.087 41.3241 158.766C41.5944 159.196 41.856 159.625 42.1263 160.055C43.4256 162.108 44.7336 164.152 45.95 166.196C46.3817 166.916 46.7784 167.641 47.1752 168.366C46.8264 167.949 46.5299 167.606 46.4776 167.559C44.9167 166.079 41.0276 164.134 38.9086 165.285C37.3826 166.113 37.0992 168.053 38.041 169.425C39.0002 170.827 41.0276 171.369 42.6364 171.443C44.1929 171.517 47.1054 170.462 48.0864 170.085C48.4745 170.84 48.8625 171.591 49.2026 172.341C49.4249 172.858 49.6735 173.34 49.8653 173.869C50.0659 174.39 50.2664 174.906 50.467 175.418C50.8114 176.417 51.1777 177.445 51.4872 178.426C51.7096 179.107 51.9101 179.758 52.1107 180.418C51.6921 179.698 50.8376 178.3 50.7547 178.192C49.438 176.495 45.889 173.986 43.6174 174.802C41.9824 175.388 41.4069 177.267 42.1307 178.765C42.8675 180.292 44.7859 181.134 46.3642 181.455C48.0995 181.807 51.7881 180.978 52.2502 180.869C52.5816 181.959 52.8955 183.022 53.1745 184.029C54.1381 187.484 54.8139 190.404 55.2586 192.462L56.8849 192.305C56.8718 192.258 56.8631 192.219 56.8544 192.167C56.3573 190.088 55.6074 187.132 54.5479 183.63C54.2166 182.523 53.8373 181.347 53.4405 180.14C53.7108 180.001 55.2412 179.207 56.5753 178.287C57.9357 179.494 61.2362 180.739 61.6635 180.9C61.3365 181.989 61.0095 183.048 60.6825 184.042C59.5707 187.453 58.5155 190.257 57.7482 192.223L59.5358 192.049C60.2377 190.109 61.1272 187.527 62.0471 184.467C62.3829 183.361 62.7186 182.171 63.0543 180.948C63.5165 181 67.2835 181.39 68.9708 180.835C70.5012 180.331 72.3062 179.268 72.8556 177.667C73.3919 176.095 72.5983 174.299 70.9067 173.908C68.5566 173.366 65.3302 176.278 64.2271 178.118C64.1617 178.226 63.5862 179.485 63.2374 180.284C63.3726 179.784 63.5077 179.298 63.6385 178.782C63.9045 177.762 64.1443 176.733 64.4015 175.631C64.5062 175.093 64.6152 174.55 64.7242 174.004C64.8419 173.461 64.8986 172.875 64.9901 172.307C65.1733 170.983 65.2953 169.633 65.3869 168.27C66.2851 168.5 69.4897 169.277 71.0854 169.008C72.6725 168.744 74.6214 167.962 75.4062 166.461C76.1779 164.989 75.6678 163.093 74.0502 162.451C71.8092 161.561 68.1773 163.952 66.8039 165.601C66.7167 165.706 65.8665 166.999 65.4131 167.724C65.461 166.903 65.5133 166.087 65.5351 165.254C65.6005 162.854 65.5918 160.424 65.5918 158.002C65.5918 157.26 65.6005 156.518 65.6049 155.78C65.9232 155.867 69.712 156.869 71.4953 156.57C73.0823 156.305 75.0312 155.524 75.816 154.022C76.5877 152.551 76.0776 150.654 74.4601 150.012C72.219 149.122 68.5871 151.514 67.2137 153.163C67.1091 153.289 65.8883 155.155 65.6005 155.645C65.6136 154.014 65.6441 152.386 65.7401 150.785C65.8665 148.576 66.115 146.414 66.5074 144.335C66.6557 144.374 70.6058 145.438 72.4327 145.134C74.0197 144.869 75.9686 144.088 76.7534 142.586C77.5251 141.115 77.015 139.219 75.3975 138.576C73.1564 137.686 69.5245 140.078 68.1511 141.727C68.0596 141.836 67.1265 143.255 66.6993 143.945C66.6295 143.919 66.6426 143.923 66.5728 143.893C67.0219 141.675 67.7413 139.579 68.5087 137.656C68.9534 136.541 69.4373 135.495 69.9344 134.492C70.6494 134.766 73.9325 135.977 75.6067 135.881C77.2156 135.79 79.2343 135.23 80.1847 133.82C81.1134 132.439 80.8169 130.499 79.2822 129.688C77.1545 128.559 73.2829 130.539 71.7351 132.031C71.6522 132.114 70.8892 133.034 70.3399 133.711C70.5709 133.26 70.802 132.791 71.0287 132.366C71.8877 130.764 72.7727 129.345 73.5663 128.099C74.0241 127.392 74.4513 126.767 74.8568 126.181C75.6983 126.086 79.086 125.656 80.5074 124.818C81.8895 124.002 83.4242 122.575 83.6161 120.891C83.8035 119.241 82.6394 117.653 80.8998 117.636L80.9041 117.614Z" fill="#CCCCCC"/>
</g>
</g>
<g id="Floor">
<g id="Group_5">
<path id="Vector_12" d="M202.304 192.696H207.1" stroke="#263238" stroke-linecap="round" stroke-linejoin="round"/>
<path id="Vector_13" d="M17.44 192.696H197.508" stroke="#263238" stroke-linecap="round" stroke-linejoin="round"/>
</g>
</g>
<g id="Device">
<g id="Group_6">
<path id="Vector_14" d="M126.75 32.55H56.9677C53.4714 32.55 50.637 35.3714 50.637 38.8517V186.394C50.637 189.875 53.4714 192.696 56.9677 192.696H126.75C130.246 192.696 133.08 189.875 133.08 186.394V38.8517C133.08 35.3714 130.246 32.55 126.75 32.55Z" fill="#263238"/>
<path id="Vector_15" opacity="0.3" d="M102.53 32.55H56.9677C53.471 32.55 50.637 35.371 50.637 38.8517V164.286L102.53 32.55Z" fill="white"/>
<path id="Vector_16" d="M129.413 43.426H54.3038V183.191H129.413V43.426Z" fill="white" stroke="#263238" stroke-linecap="round" stroke-linejoin="round"/>
<g id="Group_7">
<g id="Group_8">
<path id="Vector_17" d="M126.854 44.8756H120.628V48.2738H126.854V44.8756Z" stroke="#263238" stroke-width="0.82" stroke-linecap="round" stroke-linejoin="round"/>
<path id="Vector_18" d="M125.485 44.8756H120.628V48.2738H125.485V44.8756Z" fill="#263238" stroke="#263238" stroke-width="0.73" stroke-linecap="round" stroke-linejoin="round"/>
<path id="Vector_19" d="M127.722 45.8261H126.845V47.3234H127.722V45.8261Z" fill="#263238" stroke="#263238" stroke-width="0.73" stroke-linecap="round" stroke-linejoin="round"/>
</g>
<g id="Group_9">
<path id="Vector_20" d="M57.1378 45.9302H55.9955V47.8789H57.1378V45.9302Z" fill="#263238" stroke="#263238" stroke-width="0.88" stroke-linecap="round" stroke-linejoin="round"/>
<path id="Vector_21" d="M58.9297 45.2445H57.7874V47.8789H58.9297V45.2445Z" fill="#263238" stroke="#263238" stroke-width="0.88" stroke-linecap="round" stroke-linejoin="round"/>
<path id="Vector_22" d="M60.7261 44.4373H59.5837V47.8789H60.7261V44.4373Z" fill="#263238" stroke="#263238" stroke-width="0.88" stroke-linecap="round" stroke-linejoin="round"/>
</g>
</g>
<path id="Vector_23" d="M127.639 50.1661H55.5159V55.565H127.639V50.1661Z" fill="#92E3A9"/>
</g>
</g>
<g id="Chats">
<g id="Group_10">
<g id="Group_11">
<path id="Vector_24" d="M120.353 82.2907H62.409C60.3555 82.2907 58.6899 80.6329 58.6899 78.5887V58.6985L63.0892 63.338H120.353C122.407 63.338 124.073 64.9958 124.073 67.04V78.5887C124.073 80.6329 122.407 82.2907 120.353 82.2907Z" fill="#92E3A9"/>
<path id="Vector_25" d="M73.6447 72.8122C73.6447 69.9391 71.3034 67.6085 68.4171 67.6085C65.5308 67.6085 63.1895 69.9391 63.1895 72.8122C63.1895 75.6853 65.5308 78.0158 68.4171 78.0158C71.3034 78.0158 73.6447 75.6853 73.6447 72.8122Z" fill="white"/>
<g id="Group_12">
<path id="Vector_26" d="M76.3174 67.3134H87.152" stroke="#263238" stroke-width="2" stroke-linecap="round" stroke-linejoin="round"/>
<path id="Vector_27" d="M76.3174 71.0718H118.631" stroke="#263238" stroke-linecap="round" stroke-linejoin="round"/>
<path id="Vector_28" d="M76.3174 74.1749H118.631" stroke="#263238" stroke-linecap="round" stroke-linejoin="round"/>
<path id="Vector_29" d="M76.3174 77.6079H118.631" stroke="#263238" stroke-linecap="round" stroke-linejoin="round"/>
</g>
</g>
<g id="Group_13">
<path id="Vector_30" d="M120.353 133.841H62.409C60.3555 133.841 58.6899 132.183 58.6899 130.139V110.249L63.0892 114.888H120.353C122.407 114.888 124.073 116.546 124.073 118.591V130.139C124.073 132.183 122.407 133.841 120.353 133.841Z" fill="#92E3A9"/>
<path id="Vector_31" d="M73.6447 124.363C73.6447 121.49 71.3034 119.159 68.4171 119.159C65.5308 119.159 63.1895 121.49 63.1895 124.363C63.1895 127.236 65.5308 129.566 68.4171 129.566C71.3034 129.566 73.6447 127.236 73.6447 124.363Z" fill="white"/>
<g id="Group_14">
<path id="Vector_32" d="M76.3174 118.864H87.152" stroke="#263238" stroke-width="2" stroke-linecap="round" stroke-linejoin="round"/>
<path id="Vector_33" d="M76.3174 122.622H118.631" stroke="#263238" stroke-linecap="round" stroke-linejoin="round"/>
<path id="Vector_34" d="M76.3174 125.725H118.631" stroke="#263238" stroke-linecap="round" stroke-linejoin="round"/>
<path id="Vector_35" d="M76.3174 129.158H118.631" stroke="#263238" stroke-linecap="round" stroke-linejoin="round"/>
</g>
</g>
<g id="Group_15">
<path id="Vector_36" d="M63.7127 164.92H121.657C123.711 164.92 125.376 163.262 125.376 161.218V141.328L120.977 145.967H63.7127C61.6591 145.967 59.9936 147.625 59.9936 149.669V161.218C59.9936 163.262 61.6591 164.92 63.7127 164.92Z" fill="#808080"/>
<path id="Vector_37" d="M73.4145 159.121C75.456 157.089 75.456 153.794 73.4145 151.762C71.373 149.73 68.063 149.73 66.0215 151.762C63.98 153.794 63.98 157.089 66.0215 159.121C68.063 161.154 71.373 161.154 73.4145 159.121Z" fill="white"/>
<g id="Group_16">
<path id="Vector_38" d="M77.6211 149.943H97.603" stroke="#263238" stroke-width="2" stroke-linecap="round" stroke-linejoin="round"/>
<path id="Vector_39" d="M77.6211 153.701H119.935" stroke="#263238" stroke-linecap="round" stroke-linejoin="round"/>
<path id="Vector_40" d="M77.6211 156.809H119.935" stroke="#263238" stroke-linecap="round" stroke-linejoin="round"/>
<path id="Vector_41" d="M77.6211 160.241H119.935" stroke="#263238" stroke-linecap="round" stroke-linejoin="round"/>
</g>
</g>
</g>
</g>
<g id="Character">
<path id="Vector_42" d="M89.428 190.7C89.428 189.159 88.1723 187.913 86.6289 187.913C85.0854 187.913 83.8254 189.163 83.8254 190.7C83.8254 192.236 85.0811 193.49 86.6289 193.49C88.1767 193.49 89.428 192.24 89.428 190.7Z" stroke="white" stroke-linecap="round" stroke-linejoin="round"/>
<g id="Group_17">
<path id="Vector_43" d="M161.119 183.708L160.13 187.11C160.13 187.11 155.97 189.762 155.303 191.711C154.636 193.659 155.521 194.957 157.091 194.914C158.66 194.87 161.067 194.315 161.996 192.961C162.924 191.607 163.609 190.261 164.673 189.389C165.737 188.512 167.193 188.59 167.607 186.29C168.021 183.99 166.186 183.317 164.73 183.122C163.269 182.922 161.115 183.708 161.115 183.708H161.119Z" fill="white" stroke="#263238" stroke-linecap="round" stroke-linejoin="round"/>
<g id="Group_18">
<path id="Vector_44" d="M149.727 108.86C149.727 108.86 147.887 112.883 148.026 117.575C148.026 117.575 146.666 124.723 148.388 133.95C150.11 143.177 153.603 150.667 153.629 151.509C153.655 152.351 153.302 160.919 154.366 164.139C155.43 167.359 160.827 182.024 160.827 182.024C160.827 182.024 160.526 184.081 161.146 184.545C161.765 185.01 163.469 185.322 163.827 185.188C164.184 185.058 165.152 184.91 165.152 184.91L165.815 186.82C165.815 186.82 166.181 186.928 167.633 186.889C169.085 186.846 170.267 185.847 170.267 185.847C170.267 185.847 172.865 175.41 174.47 168.375C176.079 161.339 176.855 150.711 176.855 150.711C176.855 150.711 180.321 136.875 180.792 128.303C181.263 119.736 179.479 116.655 179.479 116.655C179.479 116.655 179.257 113.165 177.945 109.832C176.637 106.495 174.117 107.293 164.76 106C155.399 104.707 152.888 105.744 152.055 106.13C151.218 106.517 149.735 108.856 149.735 108.856L149.727 108.86Z" fill="#263238" stroke="#263238" stroke-linecap="round" stroke-linejoin="round"/>
<g id="Group_19">
<path id="Vector_45" d="M165.122 179.628C165.227 180.8 165.292 181.538 165.292 181.538" stroke="#808080" stroke-linecap="round" stroke-linejoin="round"/>
<path id="Vector_46" d="M163.705 127.965C163.705 127.965 162.545 144.049 163.387 147.569C164.154 150.754 164.551 152.521 164.551 152.521C164.551 152.521 163.121 161.478 163.744 166.161C164.115 168.961 164.594 173.917 164.921 177.445" stroke="#808080" stroke-linecap="round" stroke-linejoin="round"/>
<path id="Vector_47" d="M171.435 119.71C172.128 119.363 172.857 119.077 173.606 118.877" stroke="#808080" stroke-linecap="round" stroke-linejoin="round"/>
<path id="Vector_48" d="M164.372 125.895C164.372 125.895 166.504 122.93 169.639 120.778" stroke="#808080" stroke-linecap="round" stroke-linejoin="round"/>
<path id="Vector_49" d="M156.241 122.336C156.241 122.336 158.22 124.831 161.255 126.277" stroke="#808080" stroke-linecap="round" stroke-linejoin="round"/>
<path id="Vector_50" d="M168.684 120.227C168.684 120.227 171.178 118.586 174.182 117.775" stroke="#808080" stroke-linecap="round" stroke-linejoin="round"/>
</g>
</g>
<g id="Group_20">
<path id="Vector_51" d="M163.888 69.3749C163.888 69.3749 163.748 72.4997 163.195 73.4415C162.641 74.3833 156.825 74.0925 154.527 74.852C152.225 75.6115 150.773 77.5037 149.888 78.9186C149.003 80.3334 140.632 95.8359 140.92 97.676C141.207 99.5162 141.347 100.323 144.011 100.128C146.675 99.9328 153.189 92.3465 153.189 92.3465L153.389 99.1603L149.727 108.86C149.727 108.86 154.571 111.607 163.666 112.962C172.765 114.316 178.341 110.453 178.341 110.453L176.911 101.361L178.673 94.1433C178.673 94.1433 182.505 102.007 183.722 103.939C184.938 105.87 187.838 105.666 189.281 103.431C190.724 101.191 190.327 99.5856 188.962 96.6214C187.598 93.6572 184.777 84.6083 183.661 82.3255C182.549 80.047 182.03 78.2111 178.734 76.6921C175.438 75.1688 170.31 74.6263 170.31 74.6263L170.398 69.6527L163.888 69.3792V69.3749Z" fill="#92E3A9" stroke="#263238" stroke-linecap="round" stroke-linejoin="round"/>
<path id="Vector_52" d="M170.398 69.6483L163.888 69.3749C163.888 69.3749 163.749 72.4997 163.195 73.4415C162.872 73.9927 160.749 74.1185 158.582 74.2834C159.04 76.7833 160.57 82.4557 165.37 87.0778C165.37 87.0778 172.425 81.6875 175.525 75.5811C172.865 74.8867 170.315 74.6176 170.315 74.6176L170.402 69.644L170.398 69.6483Z" fill="#263238" stroke="#263238" stroke-linecap="round" stroke-linejoin="round"/>
<path id="Vector_53" d="M152.103 92.2944C152.103 92.2944 151.658 88.983 153.433 83.6839" stroke="#263238" stroke-linecap="round" stroke-linejoin="round"/>
</g>
<g id="Group_21">
<path id="Vector_54" d="M170.398 69.6483L163.888 69.3749C163.888 69.3749 163.749 72.4997 163.195 73.4415C163.016 73.7453 162.288 73.9189 161.307 74.0447C161.272 75.1297 161.333 77.6296 162.449 79.7041C163.923 82.434 165.597 84.1222 165.597 84.1222C165.597 84.1222 168.994 81.132 170.868 77.8422C171.509 76.7182 171.95 75.7243 172.251 74.8997C171.095 74.7088 170.306 74.622 170.306 74.622L170.393 69.6483H170.398Z" fill="white" stroke="#263238" stroke-linecap="round" stroke-linejoin="round"/>
<path id="Vector_55" d="M163.709 71.3713C164.568 72.2306 165.806 73.155 167.468 73.6368C168.523 73.9449 169.486 74.0404 170.323 74.0317L170.398 69.6483L163.888 69.3749C163.888 69.3749 163.844 70.3471 163.709 71.367V71.3713Z" fill="#263238" stroke="#263238" stroke-linecap="round" stroke-linejoin="round"/>
</g>
<g id="Group_22">
<path id="Vector_56" d="M180.844 54.7838C180.844 54.7838 179.117 43.1917 170.036 42.2065C160.954 41.2213 152.827 47.0933 151.811 50.9993C150.795 54.9097 155.543 58.1517 155.207 59.5361C154.872 60.9206 151.096 60.7817 150.298 63.6852C149.504 66.5886 153.319 68.1033 153.319 68.1033C153.319 68.1033 146.4 68.0555 148.881 71.1109C151.362 74.1663 155.085 72.5561 156.062 71.5275C157.038 70.499 156.493 69.1362 156.493 69.1362C156.493 69.1362 159.689 70.9199 162.789 69.453C165.889 67.9861 166.317 65.343 166.317 65.343C166.317 65.343 170.175 68.2335 176.253 65.4255C182.331 62.6175 181.646 56.5068 180.844 54.7751V54.7838Z" fill="#263238" stroke="#263238" stroke-linecap="round" stroke-linejoin="round"/>
<path id="Vector_57" d="M177.186 58.6074C177.186 58.6074 177.587 60.543 176.397 62.0403C175.207 63.5376 174.173 62.6609 174.173 62.6609L174.426 58.4077L177.186 58.6074Z" fill="white" stroke="#263238" stroke-linecap="round" stroke-linejoin="round"/>
<path id="Vector_58" d="M158.325 58.6985C158.325 58.6985 157.753 60.5907 158.804 62.1879C159.859 63.785 160.967 62.9994 160.967 62.9994L161.093 58.7419L158.325 58.6985Z" fill="white" stroke="#263238" stroke-linecap="round" stroke-linejoin="round"/>
<g id="Group_23">
<path id="Vector_59" d="M160.387 56.1335C160.387 56.1335 160.457 62.7651 160.779 65.1347C161.102 67.5044 162.763 72.7124 167.284 72.4563C172.556 72.1568 173.402 66.645 174.217 64.4924C175.032 62.3398 175.346 55.9469 175.346 55.9469C175.346 55.9469 175.394 49.0594 169.325 47.9874C163.256 46.9154 161.233 50.7259 160.387 56.1335Z" fill="white" stroke="#263238" stroke-linecap="round" stroke-linejoin="round"/>
<path id="Vector_60" d="M165.096 62.3788C165.109 62.8258 164.865 63.1991 164.555 63.2078C164.241 63.2164 163.98 62.8606 163.967 62.4135C163.953 61.9665 164.198 61.5933 164.507 61.5846C164.821 61.5759 165.083 61.9318 165.096 62.3788Z" fill="#263238"/>
<path id="Vector_61" d="M170.637 62.5915C170.65 63.0385 170.406 63.4117 170.097 63.4204C169.783 63.4291 169.521 63.0732 169.508 62.6262C169.495 62.1792 169.739 61.8059 170.049 61.7973C170.363 61.7886 170.624 62.1445 170.637 62.5915Z" fill="#263238"/>
<path id="Vector_62" d="M165.955 65.8595C165.955 65.8595 166.735 66.7145 168.226 66.1676" stroke="#263238" stroke-linecap="round" stroke-linejoin="round"/>
<path id="Vector_63" d="M164.359 67.1572C164.359 67.1572 165.658 68.6197 167.289 68.4461C168.92 68.2725 169.648 67.3742 169.648 67.3742" stroke="#263238" stroke-linecap="round" stroke-linejoin="round"/>
</g>
<g id="Group_24">
<path id="Vector_64" d="M156.21 59.5101C156.21 59.5101 157.906 61.5889 162.68 61.4501C167.454 61.3112 170.777 58.833 170.777 58.833C170.777 58.833 167.956 61.2938 170.219 61.2287C172.482 61.1636 174.221 60.4866 176.65 57.5354C179.078 54.5842 178.699 50.3397 177.125 48.1349C175.551 45.9259 168.854 44.8713 162.523 47.5621C156.188 50.2529 155.007 57.045 156.21 59.5144V59.5101Z" fill="#263238" stroke="#263238" stroke-linecap="round" stroke-linejoin="round"/>
<path id="Vector_65" d="M158.072 57.7958C157.396 57.3401 156.995 56.9582 156.995 56.9582" stroke="#808080" stroke-linecap="round" stroke-linejoin="round"/>
<path id="Vector_66" d="M176.458 53.6033C176.458 53.6033 173.24 57.5701 172.32 57.722C171.4 57.8739 171.553 54.9748 171.553 54.9748C171.553 54.9748 167.873 57.5701 164.198 58.9415C162.502 59.5752 160.84 59.2019 159.537 58.616" stroke="#808080" stroke-linecap="round" stroke-linejoin="round"/>
</g>
</g>
<path id="Vector_67" d="M165.811 186.824C165.811 186.824 165.684 190.682 165.628 192.852C165.571 195.022 166.338 196.446 167.79 196.402C169.242 196.359 172.778 197.218 173.572 195.391C174.365 193.56 171.457 189.306 171.043 187.631C170.629 185.956 170.358 185.001 170.358 185.001L165.785 185.856L165.815 186.82L165.811 186.824Z" fill="white" stroke="#263238" stroke-linecap="round" stroke-linejoin="round"/>
<g id="Group_25">
<g id="Group_26">
<path id="Vector_68" d="M121.762 87.8546C121.762 87.8546 119.852 86.4007 118.505 86.4007C117.158 86.4007 116.708 85.3938 116.033 85.1725C115.357 84.9512 115.248 86.7392 116.033 87.0734C116.817 87.4076 117.829 87.8546 117.829 87.8546L118.614 89.3085L122.769 89.7555L121.757 87.8546H121.762Z" fill="white" stroke="#263238" stroke-linecap="round" stroke-linejoin="round"/>
<path id="Vector_69" d="M116.595 105.796L172.599 110.553C174.583 110.722 176.331 109.255 176.502 107.28L177.247 98.6091L177.461 96.1136L178.154 88.0543L173.519 92.1773L118.173 87.4727C116.19 87.3034 114.441 88.7704 114.271 90.7451L113.312 101.908C113.142 103.882 114.616 105.623 116.599 105.792L116.595 105.796Z" fill="#808080"/>
<path id="Vector_70" d="M128.241 97.5545C128.481 94.7769 126.41 92.3292 123.619 92.0948C120.829 91.8561 118.37 93.9176 118.134 96.6952C117.894 99.4728 119.965 101.921 122.756 102.155C125.546 102.394 128.005 100.332 128.241 97.5545Z" fill="white"/>
<g id="Group_27">
<path id="Vector_71" d="M131.28 92.4594L150.594 94.0999" stroke="#263238" stroke-width="2" stroke-linecap="round" stroke-linejoin="round"/>
<path id="Vector_72" d="M130.966 96.0919L171.867 99.5683" stroke="#263238" stroke-linecap="round" stroke-linejoin="round"/>
<path id="Vector_73" d="M130.708 99.0952L171.61 102.572" stroke="#263238" stroke-linecap="round" stroke-linejoin="round"/>
<path id="Vector_74" d="M130.425 102.411L171.326 105.887" stroke="#263238" stroke-linecap="round" stroke-linejoin="round"/>
</g>
</g>
<g id="Group_28">
<g id="Vector_75">
<path d="M179.187 98.3357C179.187 98.3357 181.485 97.6326 183.87 97.1032C186.255 96.5737 189.346 98.1578 190.052 99.8287C190.759 101.5 190.406 102.819 189.52 104.138C188.635 105.458 187.314 106.074 185.283 105.631C183.9 105.332 182.457 103.874 182.013 102.993L181.572 102.112C181.572 102.112 181.219 101.582 180.866 101.582" fill="#92E3A9"/>
<path d="M179.187 98.3357C179.187 98.3357 181.485 97.6326 183.87 97.1032C186.255 96.5737 189.346 98.1578 190.052 99.8287C190.759 101.5 190.406 102.819 189.52 104.138C188.635 105.458 187.314 106.074 185.283 105.631C183.9 105.332 182.457 103.874 182.013 102.993L181.572 102.112C181.572 102.112 181.219 101.582 180.866 101.582" stroke="#263238" stroke-linecap="round" stroke-linejoin="round"/>
</g>
<g id="Group_29">
<path id="Vector_76" d="M178.302 97.4547C178.302 97.4547 176.279 95.033 175.298 95.3107C174.553 95.5234 171.531 96.1918 170.118 96.5042C169.748 96.5867 169.565 96.9947 169.743 97.3245C169.848 97.5111 170.049 97.6283 170.262 97.6196L174.505 97.459L175.037 98.3401L169.765 99.2167C169.451 99.2688 169.229 99.5509 169.251 99.8677C169.277 100.193 169.556 100.445 169.883 100.436L175.337 100.041L170.615 101.79C170.14 101.929 170.023 102.546 170.415 102.845C170.546 102.945 170.711 102.988 170.873 102.962L176.218 101.842L173.885 103.704C173.942 104.151 174.269 104.173 174.731 104.012L179.183 102.385C179.183 102.385 180.242 102.823 181.481 102.823C182.719 102.823 182.98 101.33 182.013 99.9198C181.04 98.5137 178.302 97.459 178.302 97.459V97.4547Z" fill="white" stroke="#263238" stroke-linecap="round" stroke-linejoin="round"/>
<path id="Vector_77" d="M175.032 98.3366C175.032 98.3366 176.401 98.0925 176.959 98.1404" stroke="#263238" stroke-linecap="round" stroke-linejoin="round"/>
<path id="Vector_78" d="M175.337 100.033L176.916 99.6638" stroke="#263238" stroke-linecap="round" stroke-linejoin="round"/>
<path id="Vector_79" d="M176.218 101.838L177.609 101.326" stroke="#263238" stroke-linecap="round" stroke-linejoin="round"/>
</g>
</g>
<path id="Vector_80" d="M114.245 86.4962C113.975 86.7045 113.896 87.0734 114.062 87.3729C114.507 88.1758 115.414 89.6167 116.146 89.5342C117.158 89.4214 116.373 88.4145 116.146 87.9675C116.015 87.7027 115.566 87.0864 115.226 86.6264C114.995 86.3183 114.555 86.2575 114.245 86.4962Z" fill="white" stroke="#263238" stroke-linecap="round" stroke-linejoin="round"/>
<path id="Vector_81" d="M113.46 88.1714C113.19 88.3798 113.111 88.7487 113.277 89.0481C113.722 89.851 114.629 91.2919 115.361 91.2094C116.373 91.0966 115.584 90.0897 115.361 89.6427C115.23 89.378 114.781 88.7617 114.441 88.3016C114.21 87.9935 113.77 87.9327 113.46 88.1714Z" fill="white" stroke="#263238" stroke-linecap="round" stroke-linejoin="round"/>
<path id="Vector_82" d="M112.174 91.2745C111.956 91.4438 111.891 91.7432 112.026 91.9863C112.388 92.6373 113.125 93.8048 113.718 93.7397C114.537 93.6485 113.901 92.8326 113.718 92.468C113.609 92.2554 113.247 91.7519 112.968 91.383C112.78 91.1313 112.423 91.0836 112.174 91.2745Z" fill="white" stroke="#263238" stroke-linecap="round" stroke-linejoin="round"/>
<path id="Vector_83" d="M112.449 89.3997C112.178 89.608 112.1 89.9769 112.266 90.2763C112.71 91.0792 113.617 92.5201 114.35 92.4377C115.361 92.3248 114.576 91.3179 114.35 90.8709C114.219 90.6062 113.77 89.9899 113.43 89.5298C113.199 89.2217 112.758 89.161 112.449 89.3997Z" fill="white" stroke="#263238" stroke-linecap="round" stroke-linejoin="round"/>
</g>
</g>
</g>
</g>
</svg>
